# xmcd
#
# Track frame offsets:
#  150
#  19152
#  43239
#  60272
#  75121
#  100055
#  118685
#  132865
#
# Disc length: 2024 seconds
#
# Revision: 0
# Processed by: cddbd v1.5.1PL2 Copyright (c) Steve Scherf et al.
# Submitted via: AltoMP3_Maker 3.0
#
DISCID=5807e608
DTITLE=Patti Stevens - Scent of an Outlaw
DYEAR=1900
DGENRE=
TTITLE0=Drinking and Dreaming
TTITLE1=Rebel Left Behind
TTITLE2=Just in Case
TTITLE3=Leave Me Clean
TTITLE4=Nashville Knows w/Billy D Burns
TTITLE5=She Rides
TTITLE6=Scent of an Outlaw
TTITLE7=Whatever Heart You Have Left
EXTD=
EXTT0=
EXTT1=
EXTT2=
EXTT3=
EXTT4=
EXTT5=
EXTT6=
EXTT7=
PLAYORDER=
